<?xml version="1.0" standalone="no"?>
<!DOCTYPE svg PUBLIC "-//W3C//DTD SVG 20010904//EN"
 "http://www.w3.org/TR/2001/REC-SVG-20010904/DTD/svg10.dtd">
<svg version="1.0" xmlns="http://www.w3.org/2000/svg"
 width="400.000000pt" height="400.000000pt" viewBox="0 0 400.000000 400.000000"
 preserveAspectRatio="xMidYMid meet">
<metadata>
Created by potrace 1.11, written by Peter Selinger 2001-2013
</metadata>
<g transform="translate(0.000000,400.000000) scale(0.100000,-0.100000)"
fill="#000000" stroke="none">
<path d="M1065 3402 c-28 -5 -36 -15 -26 -31 6 -9 33 -15 77 -18 96 -5 166
-38 194 -92 28 -55 32 -133 33 -638 1 -233 3 -423 5 -423 6 0 73 42 185 115
l91 60 2 365 c2 325 6 430 17 480 20 88 66 122 184 134 21 3 41 5 46 5 10 1 9
13 -3 31 -7 12 -30 14 -117 11 -142 -4 -431 -4 -563 1 -58 2 -114 2 -125 0z"/>
<path d="M2613 3402 c-32 -5 -28 -30 7 -50 41 -23 54 -64 35 -109 -26 -61 -68
-108 -422 -472 -129 -132 -158 -168 -121 -145 7 5 18 10 23 11 6 1 65 22 131
45 l122 43 223 217 c259 251 256 248 330 299 107 72 222 113 342 119 12 0 8
28 -5 36 -7 5 -67 6 -133 4 -144 -4 -426 -3 -475 2 -19 2 -45 2 -57 0z"/>
<path d="M3086 2732 c-2 -1 -34 -5 -72 -7 -38 -3 -85 -7 -104 -10 -19 -2 -57
-7 -85 -10 -50 -6 -88 -11 -135 -20 -14 -3 -41 -7 -60 -10 -29 -5 -100 -21
-182 -41 -10 -2 -26 -6 -35 -8 -52 -13 -160 -49 -170 -58 -7 -6 -13 -8 -13 -5
0 18 -420 -173 -428 -195 -2 -4 -8 -8 -13 -8 -22 0 -810 -489 -958 -595 -209
-150 -479 -384 -708 -612 -60 -59 -83 -89 -83 -107 0 -23 22 -11 253 143 253
168 387 251 405 251 6 0 12 3 14 8 2 4 129 79 282 167 154 88 300 172 325 187
26 15 52 31 60 35 8 3 78 43 155 88 78 44 188 102 246 127 247 110 682 227
980 264 19 2 49 6 65 8 143 21 374 27 497 14 68 -8 150 -34 194 -62 92 -61 54
-241 -121 -581 -79 -152 -138 -254 -221 -382 -30 -46 -54 -85 -54 -88 0 -3 -9
-15 -20 -27 -22 -24 -27 -43 -7 -32 16 10 79 56 93 69 6 6 29 24 50 40 263
206 532 495 639 689 96 174 120 347 63 469 -26 55 -136 177 -160 177 -5 0 -22
8 -36 19 -31 21 -158 66 -217 76 -22 4 -49 9 -60 11 -68 13 -370 25 -379 16z"/>
<path d="M1975 2016 c-82 -31 -168 -68 -178 -76 -5 -4 13 -31 40 -60 26 -29
56 -62 66 -74 10 -11 55 -61 101 -111 46 -49 95 -103 110 -120 107 -117 316
-335 451 -470 230 -230 376 -333 515 -365 56 -13 537 -24 565 -13 20 7 19 29
-1 37 -9 3 -32 6 -52 6 -91 1 -255 60 -359 131 -26 18 -50 35 -53 39 -3 3 -21
18 -40 34 -132 108 -588 555 -968 949 -62 64 -118 117 -125 116 -7 0 -39 -10
-72 -23z"/>
<path d="M1485 1770 l-140 -80 -2 -202 c-3 -472 -19 -618 -74 -676 -24 -26
-69 -40 -137 -41 -31 -1 -53 -23 -38 -38 4 -4 194 -7 422 -8 332 0 417 2 426
13 18 21 -2 29 -86 36 -87 7 -139 25 -167 58 -49 55 -60 191 -63 705 0 172 -1
313 -1 313 0 0 -63 -36 -140 -80z"/>
</g>
</svg>
